<?xml version="1.0" encoding="utf-8"?>
<!-- Generator: Adobe Illustrator 24.3.0, SVG Export Plug-In . SVG Version: 6.00 Build 0)  -->
<!DOCTYPE svg PUBLIC "-//W3C//DTD SVG 1.1//EN" "http://www.w3.org/Graphics/SVG/1.1/DTD/svg11.dtd" [
	<!ENTITY ns_extend "http://ns.adobe.com/Extensibility/1.0/">
	<!ENTITY ns_ai "http://ns.adobe.com/AdobeIllustrator/10.0/">
	<!ENTITY ns_graphs "http://ns.adobe.com/Graphs/1.0/">
	<!ENTITY ns_vars "http://ns.adobe.com/Variables/1.0/">
	<!ENTITY ns_imrep "http://ns.adobe.com/ImageReplacement/1.0/">
	<!ENTITY ns_sfw "http://ns.adobe.com/SaveForWeb/1.0/">
	<!ENTITY ns_custom "http://ns.adobe.com/GenericCustomNamespace/1.0/">
	<!ENTITY ns_adobe_xpath "http://ns.adobe.com/XPath/1.0/">
]>
<svg version="1.1" id="Layer_1" xmlns:x="&ns_extend;" xmlns:i="&ns_ai;" xmlns:graph="&ns_graphs;"
	 xmlns="http://www.w3.org/2000/svg" xmlns:xlink="http://www.w3.org/1999/xlink" x="0px" y="0px" viewBox="0 0 202 42"
	 style="enable-background:new 0 0 202 42;" xml:space="preserve">
<style type="text/css">
	.st0{fill:#B4A269;}
	.st1{fill:#FFFFFF;}
</style>
<metadata>
	<sfw  xmlns="&ns_sfw;">
		<slices></slices>
		<sliceSourceBounds  bottomLeftOrigin="true" height="39.3" width="200" x="0.9" y="-40.7"></sliceSourceBounds>
	</sfw>
</metadata>
<g>
	<g>
		<g>
			<path class="st0" d="M82.3,3.3c0,0.4,0,0.8,0,1.2c0,0.4,0,0.9,0.1,1.5s0.1,1.1,0.1,1.5h-0.2c-0.1-0.8-0.4-1.5-0.7-2.2
				c-0.3-0.7-0.7-1.3-1.2-1.7c-0.5-0.5-1-0.9-1.6-1.2c-0.6-0.3-1.2-0.4-1.9-0.4c-0.6,0-1.1,0.1-1.6,0.3c-0.5,0.2-0.9,0.5-1.3,0.9
				c-0.4,0.4-0.6,0.8-0.9,1.3s-0.3,1.1-0.3,1.7c0,0.7,0.2,1.3,0.5,1.8c0.4,0.5,0.8,0.9,1.4,1.3c0.6,0.4,1.2,0.7,1.8,1
				c0.7,0.3,1.3,0.6,1.9,0.9c0.7,0.3,1.3,0.7,2,1.1c0.7,0.4,1.2,0.9,1.8,1.4c0.5,0.5,0.9,1.1,1.3,1.8c0.3,0.7,0.5,1.5,0.5,2.4
				c0,0.9-0.2,1.7-0.5,2.4c-0.4,0.7-0.9,1.4-1.5,1.9c-0.6,0.5-1.4,0.9-2.3,1.2c-0.9,0.3-1.8,0.4-2.9,0.4c-1.1,0-2-0.2-2.9-0.5
				c-0.9-0.3-1.7-0.8-2.6-1.4l-0.8,1.2h-0.1c0-0.7,0-1.2,0-1.6c0-0.4,0-0.8,0-1.2c0-0.4,0-1,0-1.5c0-0.6,0-1.2,0-1.9h0.2
				c0.1,0.8,0.3,1.6,0.6,2.4c0.3,0.8,0.7,1.5,1.2,2.1c0.5,0.6,1.1,1.1,1.8,1.5c0.7,0.4,1.5,0.6,2.4,0.6c0.7,0,1.3-0.1,1.9-0.3
				c0.6-0.2,1.1-0.5,1.6-0.9c0.5-0.4,0.8-0.9,1.1-1.5c0.3-0.6,0.4-1.2,0.4-1.9c0-0.7-0.2-1.3-0.5-1.8c-0.3-0.5-0.8-1-1.3-1.4
				c-0.5-0.4-1.1-0.8-1.7-1.1c-0.6-0.3-1.2-0.6-1.8-0.9c-0.7-0.3-1.3-0.7-2-1c-0.7-0.4-1.2-0.8-1.8-1.2c-0.5-0.5-0.9-1-1.3-1.7
				c-0.3-0.7-0.5-1.5-0.5-2.5c0-0.8,0.2-1.5,0.5-2.2c0.3-0.7,0.8-1.3,1.3-1.8c0.6-0.5,1.2-0.9,1.9-1.2c0.7-0.3,1.5-0.4,2.3-0.4
				c0.8,0,1.6,0.1,2.3,0.4c0.7,0.3,1.4,0.7,2.1,1.2l1.1-1.2h0.1C82.3,2.5,82.3,2.9,82.3,3.3z"/>
			<path class="st0" d="M91.2,23.3c0.7,0,1.3-0.2,1.8-0.6c0.5-0.4,0.9-1,1.3-2l7.1-19h0.2l7.3,19c0.4,0.9,0.8,1.6,1.2,2
				c0.4,0.4,1,0.6,1.7,0.6v0.1c-0.6,0-1,0-1.4,0c-0.3,0-0.6,0-0.9,0c-0.3,0-0.5,0-0.7,0c-0.2,0-0.5,0-0.8,0c-0.3,0-0.6,0-0.8,0
				c-0.2,0-0.5,0-0.7,0c-0.3,0-0.6,0-1,0c-0.4,0-0.9,0-1.4,0v-0.1c0.5,0,0.9-0.1,1.4-0.3c0.4-0.2,0.7-0.6,0.7-1.1
				c0-0.2,0-0.5-0.1-0.7c-0.1-0.2-0.1-0.5-0.2-0.7l-2.2-5.8h-6.7l-2.2,6c-0.1,0.4-0.2,0.7-0.2,1c0,0.3,0.1,0.6,0.2,0.8
				c0.1,0.2,0.3,0.4,0.5,0.5c0.2,0.1,0.4,0.2,0.6,0.2c0.2,0,0.4,0.1,0.6,0.1v0.1c-0.4,0-0.7,0-0.9,0c-0.2,0-0.4,0-0.6,0
				c-0.2,0-0.3,0-0.5,0c-0.1,0-0.3,0-0.5,0c-0.2,0-0.4,0-0.6,0c-0.1,0-0.3,0-0.5,0c-0.2,0-0.4,0-0.6,0c-0.2,0-0.5,0-0.9,0V23.3z
				 M96.8,14.5h6.6l-3.2-9.1L96.8,14.5z"/>
			<path class="st0" d="M126.7,12.6c1,0,1.7-0.2,2.1-0.7c0.5-0.5,0.7-1.1,0.7-1.9h0.1c0,0.5,0,0.9,0,1.2c0,0.3,0,0.5,0,0.7
				c0,0.2,0,0.3,0,0.5c0,0.1,0,0.3,0,0.4c0,0.2,0,0.3,0,0.4c0,0.1,0,0.2,0,0.4c0,0.2,0,0.4,0,0.7c0,0.3,0,0.7,0,1.1h-0.1
				c0-0.8-0.2-1.4-0.7-1.9c-0.5-0.5-1.2-0.7-2.1-0.7h-2.2v8.4c0,0.4,0.1,0.8,0.2,1.1c0.1,0.3,0.3,0.5,0.6,0.6
				c0.2,0.1,0.5,0.2,0.8,0.3c0.3,0.1,0.6,0.1,1,0.1v0.1c-0.6,0-1.1,0-1.5,0c-0.4,0-0.7,0-1,0c-0.3,0-0.5,0-0.7,0c-0.2,0-0.5,0-0.9,0
				c-0.4,0-0.7,0-0.9,0c-0.2,0-0.5,0-0.8,0c-0.3,0-0.6,0-0.9,0c-0.4,0-0.8,0-1.4,0v-0.1c0.3,0,0.6,0,0.9-0.1
				c0.3-0.1,0.6-0.2,0.8-0.3c0.2-0.1,0.4-0.4,0.5-0.6c0.1-0.3,0.2-0.6,0.2-1.1V4.3c0-0.4-0.1-0.8-0.2-1.1c-0.1-0.3-0.3-0.5-0.5-0.6
				s-0.5-0.2-0.8-0.3c-0.3-0.1-0.6-0.1-0.9-0.1V2.1c0.6,0,1,0,1.4,0c0.3,0,0.7,0,0.9,0c0.3,0,0.5,0,0.7,0c0.2,0,0.5,0,0.9,0
				c0.7,0,1.5,0,2.5-0.1c0.9-0.1,2-0.1,3.3-0.1c0.8,0,1.6,0,2.2,0c0.6,0,1.4,0,2.2,0.1l0.4,4h-0.1c-0.2-1.2-0.8-2.2-1.8-2.9
				s-2.3-1-3.9-1c-0.2,0-0.4,0-0.6,0c-0.2,0-0.5,0-0.7,0c-0.2,0-0.5,0-0.7,0.1c-0.2,0-0.4,0-0.5,0.1c-0.5,0.1-0.8,0.5-0.8,1v9.2
				H126.7z"/>
			<path class="st0" d="M138.3,23.3c0.7,0,1.3-0.2,1.8-0.6c0.5-0.4,0.9-1,1.3-2l7.1-19h0.2l7.3,19c0.4,0.9,0.8,1.6,1.2,2
				c0.4,0.4,1,0.6,1.7,0.6v0.1c-0.6,0-1,0-1.4,0c-0.3,0-0.6,0-0.9,0c-0.3,0-0.5,0-0.7,0c-0.2,0-0.5,0-0.8,0c-0.3,0-0.6,0-0.8,0
				c-0.2,0-0.5,0-0.7,0c-0.3,0-0.6,0-1,0c-0.4,0-0.9,0-1.4,0v-0.1c0.5,0,0.9-0.1,1.4-0.3c0.4-0.2,0.7-0.6,0.7-1.1
				c0-0.2,0-0.5-0.1-0.7c-0.1-0.2-0.1-0.5-0.2-0.7l-2.2-5.8h-6.7l-2.2,6c-0.1,0.4-0.2,0.7-0.2,1c0,0.3,0.1,0.6,0.2,0.8
				c0.1,0.2,0.3,0.4,0.5,0.5c0.2,0.1,0.4,0.2,0.6,0.2c0.2,0,0.4,0.1,0.6,0.1v0.1c-0.4,0-0.7,0-0.9,0c-0.2,0-0.4,0-0.6,0
				s-0.3,0-0.5,0c-0.1,0-0.3,0-0.5,0c-0.2,0-0.4,0-0.6,0c-0.1,0-0.3,0-0.5,0c-0.2,0-0.4,0-0.6,0c-0.2,0-0.5,0-0.9,0V23.3z
				 M143.9,14.5h6.6l-3.2-9.1L143.9,14.5z"/>
			<path class="st0" d="M166.2,2.1c0.6,0,1,0,1.4,0c0.3,0,0.7,0,0.9,0c0.3,0,0.5,0,0.7,0c0.2,0,0.5,0,0.9,0c0.6,0,1.2,0,1.9-0.1
				c0.7-0.1,1.5-0.1,2.4-0.1c0.8,0,1.7,0.1,2.6,0.2c0.9,0.1,1.7,0.4,2.4,0.8c0.7,0.4,1.3,0.9,1.8,1.6c0.5,0.7,0.7,1.6,0.7,2.8
				c0,0.8-0.2,1.5-0.5,2.1c-0.3,0.6-0.7,1.2-1.3,1.6c-0.5,0.5-1.1,0.8-1.8,1.1c-0.7,0.3-1.4,0.5-2.1,0.6c0.2,0.3,0.6,0.7,1.1,1.4
				c0.5,0.6,1.1,1.4,1.8,2.2c0.7,0.8,1.4,1.6,2.1,2.5c0.7,0.8,1.4,1.6,1.9,2.3c0.5,0.6,0.9,1,1.4,1.4c0.4,0.4,0.9,0.6,1.4,0.6v0.1
				c-0.4,0-0.7,0-0.9,0c-0.2,0-0.5,0-0.7,0c-0.2,0-0.4,0-0.6,0c-0.2,0-0.5,0-0.7,0c-0.3,0-0.5,0-0.7,0c-0.2,0-0.3,0-0.5,0
				c-0.1,0-0.3,0-0.5,0c-0.2,0-0.3,0-0.6,0c-0.7-0.8-1.3-1.6-1.8-2.3c-0.6-0.7-1.1-1.4-1.6-2.1c-0.5-0.7-1.1-1.4-1.6-2.1
				c-0.6-0.7-1.1-1.5-1.8-2.3c-0.3-0.4-0.6-0.7-0.9-0.9c-0.3-0.2-0.6-0.3-1.1-0.3h-0.3v8c0,0.4,0.1,0.8,0.2,1.1
				c0.1,0.3,0.3,0.5,0.5,0.6c0.2,0.1,0.5,0.2,0.8,0.3c0.3,0.1,0.6,0.1,0.9,0.1v0.1c-0.6,0-1.1,0-1.5,0c-0.4,0-0.7,0-1,0
				c-0.3,0-0.5,0-0.7,0c-0.2,0-0.5,0-0.9,0c-0.4,0-0.7,0-0.9,0c-0.2,0-0.5,0-0.7,0c-0.2,0-0.5,0-0.9,0c-0.3,0-0.8,0-1.3,0v-0.1
				c0.3,0,0.6,0,0.9-0.1c0.3-0.1,0.6-0.2,0.8-0.3c0.2-0.1,0.4-0.4,0.5-0.6c0.1-0.3,0.2-0.6,0.2-1.1V4.3c0-0.4-0.1-0.8-0.2-1.1
				c-0.1-0.3-0.3-0.5-0.5-0.6c-0.2-0.1-0.5-0.2-0.8-0.3c-0.3-0.1-0.6-0.1-0.9-0.1V2.1z M171.6,13.1h1.6c1.7,0,3-0.5,3.8-1.4
				c0.8-1,1.3-2.4,1.3-4.2c0-0.7-0.1-1.4-0.3-2c-0.2-0.6-0.5-1.2-0.9-1.6c-0.4-0.5-0.9-0.8-1.5-1.1c-0.6-0.3-1.2-0.4-2-0.4
				c-0.2,0-0.4,0-0.6,0c-0.2,0-0.5,0.1-0.7,0.2c-0.2,0.1-0.4,0.2-0.5,0.4c-0.1,0.2-0.2,0.4-0.2,0.7V13.1z"/>
			<path class="st0" d="M193,2.1c0.6,0,1,0,1.4,0c0.3,0,0.7,0,0.9,0c0.3,0,0.5,0,0.8,0c0.2,0,0.5,0,0.9,0c0.3,0,0.6,0,0.9,0
				c0.3,0,0.5,0,0.8,0c0.3,0,0.6,0,0.9,0c0.3,0,0.8,0,1.4,0v0.1c-0.3,0-0.6,0-0.9,0.1c-0.3,0.1-0.5,0.2-0.8,0.3s-0.4,0.4-0.5,0.6
				c-0.1,0.3-0.2,0.6-0.2,1.1v16.9c0,0.4,0.1,0.8,0.2,1.1c0.1,0.3,0.3,0.5,0.5,0.6c0.2,0.1,0.5,0.2,0.8,0.3c0.3,0.1,0.6,0.1,0.9,0.1
				v0.1c-0.6,0-1,0-1.4,0c-0.3,0-0.7,0-0.9,0c-0.3,0-0.5,0-0.8,0c-0.3,0-0.6,0-0.9,0c-0.4,0-0.7,0-0.9,0c-0.2,0-0.5,0-0.8,0
				c-0.3,0-0.6,0-0.9,0c-0.4,0-0.8,0-1.4,0v-0.1c0.3,0,0.6,0,0.9-0.1s0.5-0.2,0.8-0.3c0.2-0.1,0.4-0.4,0.5-0.6
				c0.1-0.3,0.2-0.6,0.2-1.1V4.3c0-0.4-0.1-0.8-0.2-1.1c-0.1-0.3-0.3-0.5-0.5-0.6c-0.2-0.1-0.5-0.2-0.8-0.3
				c-0.3-0.1-0.6-0.1-0.9-0.1V2.1z"/>
		</g>
		<g>
			<path class="st1" d="M1.5,17.9c0.5,3.7,3,5.2,6.2,5.2c3.6,0,5.9-1.9,5.9-5.1c0-2.9-1.5-4.5-5.9-5.8c-4.2-1.2-6-2.6-6-5.6
				c0-3.4,2.5-5.2,6-5.2c4,0,5.9,2.4,6.2,5.3h-0.6C12.8,3.5,10.5,2,7.6,2C4.4,2,2.3,3.7,2.3,6.6c0,2.7,1.6,3.9,5.6,5.1
				c5.1,1.5,6.3,3.4,6.3,6.3c0,3.5-2.4,5.7-6.6,5.7c-4.3,0-6.3-2.4-6.8-5.8H1.5z"/>
			<path class="st1" d="M25.1,1.7h0.6v11.9c2.1-2,8.4-8.1,12.2-11.9h0.9l-9.5,9.2l10.1,12.5h-0.8l-9.7-12.1l-3.1,3v9.1h-0.6V1.7z"/>
			<path class="st1" d="M53.1,23.4v-8.9c0-0.2-0.1-0.3-0.2-0.4l-7-12.3h0.7c2.2,3.9,6,10.4,6.8,12c1.9-3.2,4.6-7.9,7-12h0.7L53.9,14
				c-0.1,0.2-0.2,0.3-0.2,0.5v8.9H53.1z"/>
		</g>
	</g>
	<g>
		<g>
			<path class="st0" d="M36.5,38.8l-0.6,1.8h-0.5c0.5-1.5,1.3-3.8,1.8-5.5h0.7l1.9,5.5h-0.6l-0.6-1.8H36.5z M38.5,38.4
				c-0.5-1.5-0.8-2.4-0.9-2.8h0c-0.2,0.7-0.5,1.5-0.9,2.8H38.5z"/>
			<path class="st0" d="M44.6,35.1h1.8c0.9,0,1.6,0.5,1.6,1.3c0,0.7-0.5,1.1-0.8,1.2c0.4,0.1,1,0.5,1,1.4c0,1-0.8,1.6-1.8,1.6h-1.8
				V35.1z M46.3,37.4c0.9,0,1.2-0.4,1.2-0.9c0-0.5-0.3-0.9-1.1-0.9h-1.2v1.9H46.3z M45.1,40.2h1.2c0.8,0,1.3-0.4,1.3-1.2
				c0-0.7-0.5-1.2-1.4-1.2h-1.1V40.2z"/>
			<path class="st0" d="M57.5,37.8c0,1.6-0.7,2.9-2.3,2.9c-1.5,0-2.2-1.2-2.2-2.9c0-1.5,0.7-2.8,2.3-2.8
				C56.7,35,57.5,36.2,57.5,37.8z M53.5,37.8c0,1.4,0.6,2.4,1.7,2.4c1.2,0,1.7-1.1,1.7-2.4c0-1.3-0.5-2.3-1.7-2.3
				C54,35.5,53.5,36.6,53.5,37.8z"/>
			<path class="st0" d="M63.8,40.6l-1.8-5.5h0.6l0.9,2.8c0.3,0.8,0.6,1.7,0.7,2.2h0c0.1-0.4,0.5-1.4,0.7-2.2l0.9-2.8h0.6l-1.9,5.5
				H63.8z"/>
			<path class="st0" d="M74.1,38h-2.5v2.2h2.8l-0.1,0.5h-3.2v-5.5h3.1v0.5h-2.6v1.9h2.5V38z"/>
			<path class="st0" d="M85.8,38.8l-0.6,1.8h-0.5c0.5-1.5,1.3-3.8,1.8-5.5h0.7l1.9,5.5h-0.6l-0.6-1.8H85.8z M87.8,38.4
				c-0.5-1.5-0.8-2.4-0.9-2.8h0c-0.2,0.7-0.5,1.5-0.9,2.8H87.8z"/>
			<path class="st0" d="M93.9,40.6v-5.5h0.7c2.4,4.1,2.7,4.6,2.8,4.9h0c0-0.8-0.1-1.6-0.1-2.5v-2.3h0.5v5.5h-0.6
				c-2.6-4.4-2.7-4.7-2.9-5h0c0,0.7,0,1.6,0,2.6v2.4H93.9z"/>
			<path class="st0" d="M103.3,35.1h1.8c1.3,0,2.4,0.8,2.4,2.6c0,1.8-0.9,2.9-2.5,2.9h-1.6V35.1z M103.8,40.2h1.1c1.4,0,2-0.9,2-2.4
				c0-1.5-0.9-2.2-2-2.2h-1.1V40.2z"/>
			<path class="st0" d="M118.4,35.1h1.8c0.9,0,1.6,0.5,1.6,1.3c0,0.7-0.5,1.1-0.8,1.2c0.4,0.1,1,0.5,1,1.4c0,1-0.8,1.6-1.8,1.6h-1.8
				V35.1z M120.1,37.4c0.9,0,1.2-0.4,1.2-0.9c0-0.5-0.3-0.9-1.1-0.9h-1.2v1.9H120.1z M118.9,40.2h1.2c0.8,0,1.3-0.4,1.3-1.2
				c0-0.7-0.5-1.2-1.4-1.2h-1.1V40.2z"/>
			<path class="st0" d="M130,38h-2.5v2.2h2.8l-0.1,0.5H127v-5.5h3.1v0.5h-2.6v1.9h2.5V38z"/>
			<path class="st0" d="M136.6,40.6v-2.2c0,0,0-0.1,0-0.1l-1.8-3.2h0.6c0.5,0.9,1.3,2.3,1.5,2.7c0.4-0.8,1.1-1.9,1.5-2.7h0.6
				l-1.8,3.2c0,0,0,0.1,0,0.1v2.2H136.6z"/>
			<path class="st0" d="M147.7,37.8c0,1.6-0.7,2.9-2.3,2.9c-1.5,0-2.2-1.2-2.2-2.9c0-1.5,0.7-2.8,2.3-2.8
				C146.9,35,147.7,36.2,147.7,37.8z M143.7,37.8c0,1.4,0.6,2.4,1.7,2.4c1.2,0,1.7-1.1,1.7-2.4c0-1.3-0.5-2.3-1.7-2.3
				C144.2,35.5,143.7,36.6,143.7,37.8z"/>
			<path class="st0" d="M152.8,40.6v-5.5h0.7c2.4,4.1,2.7,4.6,2.8,4.9h0c0-0.8-0.1-1.6-0.1-2.5v-2.3h0.5v5.5h-0.6
				c-2.6-4.4-2.7-4.7-2.9-5h0c0,0.7,0,1.6,0,2.6v2.4H152.8z"/>
			<path class="st0" d="M162.2,35.1h1.8c1.3,0,2.4,0.8,2.4,2.6c0,1.8-0.9,2.9-2.5,2.9h-1.6V35.1z M162.7,40.2h1.1c1.4,0,2-0.9,2-2.4
				c0-1.5-0.9-2.2-2-2.2h-1.1V40.2z"/>
		</g>
	</g>
</g>
</svg>
