<?xml version="1.0" encoding="UTF-8"?> <svg xmlns="http://www.w3.org/2000/svg" xmlns:xlink="http://www.w3.org/1999/xlink" version="1.1" id="Layer_1" x="0px" y="0px" viewBox="0 0 250 49.1" style="enable-background:new 0 0 250 49.1;" xml:space="preserve"> <style type="text/css"> .st0{fill:#C7B374;} .st1{fill:#2D3C4B;} </style> <g> <g> <path class="st0" d="M101.7,2.3c0,0.5,0,1,0,1.5c0,0.5,0,1.1,0.1,1.8c0.1,0.7,0.1,1.4,0.1,1.9h-0.2c-0.2-1-0.4-1.9-0.9-2.7 c-0.4-0.8-0.9-1.6-1.5-2.2c-0.6-0.6-1.3-1.1-2-1.5c-0.7-0.4-1.6-0.5-2.4-0.5c-0.7,0-1.3,0.1-2,0.4c-0.6,0.3-1.2,0.6-1.6,1.1 c-0.5,0.5-0.8,1-1.1,1.6s-0.4,1.4-0.4,2.1c0,0.9,0.2,1.6,0.7,2.2c0.4,0.6,1,1.2,1.7,1.6c0.7,0.5,1.4,0.9,2.3,1.3 c0.8,0.4,1.6,0.7,2.4,1.1c0.8,0.4,1.7,0.8,2.5,1.3c0.8,0.5,1.6,1.1,2.2,1.7c0.6,0.7,1.2,1.4,1.6,2.3c0.4,0.8,0.6,1.8,0.6,3 c0,1.1-0.2,2.1-0.7,3.1c-0.5,0.9-1.1,1.7-1.9,2.4c-0.8,0.7-1.7,1.2-2.8,1.6c-1.1,0.4-2.3,0.6-3.6,0.6c-1.3,0-2.5-0.2-3.7-0.7 c-1.1-0.4-2.2-1-3.2-1.7l-1,1.6h-0.2c0-0.8,0-1.5,0-1.9c0-0.5,0-1,0-1.5c0-0.6,0-1.2,0-1.9c0-0.7,0-1.5,0-2.4H87 c0.1,1,0.4,2,0.8,3c0.4,1,0.9,1.9,1.6,2.7c0.6,0.8,1.4,1.4,2.3,1.9c0.9,0.5,1.9,0.7,3,0.7c0.8,0,1.6-0.1,2.4-0.4 c0.8-0.3,1.4-0.7,2-1.2c0.6-0.5,1-1.1,1.4-1.8c0.3-0.7,0.5-1.5,0.5-2.4c0-0.8-0.2-1.6-0.6-2.2c-0.4-0.7-1-1.3-1.6-1.8 c-0.6-0.5-1.4-1-2.2-1.4c-0.8-0.4-1.5-0.8-2.3-1.1c-0.8-0.4-1.7-0.8-2.5-1.3c-0.8-0.4-1.6-1-2.2-1.6c-0.7-0.6-1.2-1.3-1.6-2.1 c-0.4-0.8-0.6-1.9-0.6-3.1c0-1,0.2-1.9,0.6-2.7c0.4-0.8,1-1.6,1.6-2.2c0.7-0.6,1.5-1.1,2.4-1.5c0.9-0.4,1.8-0.6,2.8-0.6 c1,0,2,0.2,2.9,0.5s1.8,0.9,2.6,1.5l1.4-1.5h0.2C101.8,1.4,101.8,1.9,101.7,2.3"></path> <path class="st0" d="M119.9,16.4h8.3l-4-11.3L119.9,16.4z M112.9,27.3c0.9,0,1.6-0.2,2.2-0.7c0.6-0.5,1.1-1.3,1.6-2.5l8.9-23.8 h0.3l9.1,23.8c0.5,1.2,0.9,2,1.5,2.5c0.5,0.5,1.2,0.7,2.1,0.7v0.2c-0.7,0-1.3,0-1.7,0s-0.8,0-1.1,0c-0.3,0-0.6,0-0.9,0 c-0.3,0-0.6,0-1,0c-0.4,0-0.7,0-1,0c-0.3,0-0.6,0-0.9,0c-0.3,0-0.7,0-1.2,0c-0.5,0-1.1,0-1.8,0v-0.2c0.6,0,1.2-0.1,1.7-0.4 c0.5-0.2,0.8-0.7,0.8-1.4c0-0.3,0-0.6-0.1-0.9c-0.1-0.3-0.2-0.6-0.3-0.8l-2.7-7.3h-8.4l-2.8,7.5c-0.2,0.5-0.2,0.9-0.2,1.2 c0,0.4,0.1,0.7,0.2,1c0.2,0.3,0.4,0.5,0.6,0.6c0.2,0.1,0.5,0.2,0.8,0.3c0.3,0.1,0.5,0.1,0.8,0.1v0.2c-0.5,0-0.8,0-1.1,0 c-0.3,0-0.5,0-0.7,0c-0.2,0-0.4,0-0.6,0c-0.2,0-0.4,0-0.7,0c-0.3,0-0.5,0-0.7,0c-0.2,0-0.4,0-0.6,0c-0.2,0-0.5,0-0.8,0 s-0.7,0-1.2,0V27.3z"></path> <path class="st0" d="M157.2,14c1.2,0,2.1-0.3,2.6-0.9c0.6-0.6,0.9-1.4,0.9-2.4h0.2c0,0.6,0,1.1,0,1.5c0,0.4,0,0.7,0,0.9 c0,0.2,0,0.4,0,0.6c0,0.2,0,0.3,0,0.6c0,0.2,0,0.4,0,0.5c0,0.1,0,0.3,0,0.5c0,0.2,0,0.5,0,0.9c0,0.3,0,0.8,0,1.4h-0.2 c0-1-0.3-1.7-0.9-2.3c-0.6-0.6-1.5-0.9-2.6-0.9h-2.7v10.5c0,0.6,0.1,1,0.3,1.3c0.2,0.3,0.4,0.6,0.7,0.8c0.3,0.2,0.6,0.3,1,0.4 c0.4,0.1,0.8,0.1,1.2,0.1v0.2c-0.8,0-1.4,0-1.9,0c-0.5,0-0.9,0-1.2,0c-0.3,0-0.6,0-0.9,0c-0.3,0-0.7,0-1.1,0c-0.5,0-0.8,0-1.1,0 c-0.3,0-0.6,0-1,0c-0.3,0-0.7,0-1.2,0c-0.4,0-1,0-1.7,0v-0.2c0.4,0,0.7,0,1.1-0.1c0.4-0.1,0.7-0.2,1-0.4c0.3-0.2,0.5-0.4,0.7-0.8 c0.2-0.3,0.3-0.8,0.3-1.3V3.6c0-0.6-0.1-1-0.3-1.3c-0.2-0.3-0.4-0.6-0.7-0.8c-0.3-0.2-0.6-0.3-1-0.4c-0.4-0.1-0.7-0.1-1.1-0.1V0.9 c0.7,0,1.3,0,1.7,0c0.4,0,0.8,0,1.1,0c0.3,0,0.6,0,0.9,0c0.3,0,0.7,0,1.1,0c0.9,0,1.9,0,3.1-0.1c1.2-0.1,2.5-0.1,4.1-0.1 c1.1,0,2,0,2.8,0c0.8,0,1.7,0.1,2.8,0.1l0.5,5h-0.2c-0.3-1.5-1-2.7-2.2-3.6c-1.2-0.9-2.8-1.3-4.8-1.3c-0.2,0-0.5,0-0.8,0 c-0.3,0-0.6,0-0.9,0.1c-0.3,0-0.6,0.1-0.8,0.1c-0.3,0-0.4,0.1-0.6,0.1c-0.7,0.2-1,0.6-1,1.3V14H157.2z"></path> <path class="st0" d="M178.8,16.4h8.3L183,5L178.8,16.4z M171.8,27.3c0.9,0,1.6-0.2,2.2-0.7c0.6-0.5,1.1-1.3,1.6-2.5l8.9-23.8h0.3 l9.1,23.8c0.4,1.2,0.9,2,1.5,2.5c0.5,0.5,1.2,0.7,2.1,0.7v0.2c-0.7,0-1.3,0-1.7,0c-0.4,0-0.8,0-1.1,0c-0.3,0-0.6,0-0.9,0 c-0.3,0-0.6,0-1,0c-0.4,0-0.7,0-1,0c-0.3,0-0.6,0-0.9,0c-0.3,0-0.7,0-1.2,0c-0.5,0-1.1,0-1.8,0v-0.2c0.6,0,1.2-0.1,1.7-0.4 c0.5-0.2,0.8-0.7,0.8-1.4c0-0.3,0-0.6-0.1-0.9c-0.1-0.3-0.2-0.6-0.3-0.8l-2.7-7.3h-8.4l-2.8,7.5c-0.2,0.5-0.2,0.9-0.2,1.2 c0,0.4,0.1,0.7,0.2,1c0.2,0.3,0.4,0.5,0.6,0.6c0.2,0.1,0.5,0.2,0.8,0.3c0.3,0.1,0.5,0.1,0.8,0.1v0.2c-0.5,0-0.8,0-1.1,0 c-0.3,0-0.5,0-0.7,0c-0.2,0-0.4,0-0.6,0c-0.2,0-0.4,0-0.7,0c-0.3,0-0.5,0-0.7,0c-0.2,0-0.4,0-0.6,0c-0.2,0-0.5,0-0.8,0 s-0.7,0-1.2,0V27.3z"></path> <path class="st0" d="M213.4,14.6h2c2.1,0,3.7-0.6,4.8-1.8c1-1.2,1.6-3,1.6-5.3c0-0.9-0.1-1.7-0.4-2.5c-0.3-0.8-0.6-1.5-1.2-2 c-0.5-0.6-1.1-1-1.8-1.4c-0.7-0.3-1.6-0.5-2.5-0.5c-0.2,0-0.5,0-0.8,0c-0.3,0-0.6,0.1-0.8,0.2c-0.3,0.1-0.5,0.3-0.6,0.5 c-0.2,0.2-0.3,0.5-0.3,0.9V14.6z M206.6,0.9c0.7,0,1.3,0,1.7,0c0.4,0,0.8,0,1.2,0c0.3,0,0.6,0,0.9,0c0.3,0,0.6,0,1.1,0 c0.7,0,1.5,0,2.3-0.1c0.9-0.1,1.8-0.1,3-0.1c1,0,2.1,0.1,3.2,0.2s2.1,0.5,3,1c0.9,0.5,1.7,1.2,2.2,2c0.6,0.9,0.9,2.1,0.9,3.5 c0,1-0.2,1.9-0.6,2.6c-0.4,0.8-0.9,1.5-1.6,2c-0.7,0.6-1.4,1-2.3,1.4c-0.8,0.4-1.7,0.6-2.6,0.8c0.3,0.3,0.7,0.9,1.4,1.7 c0.7,0.8,1.4,1.7,2.3,2.7c0.8,1,1.7,2,2.6,3.1c0.9,1.1,1.7,2,2.4,2.8c0.6,0.7,1.2,1.3,1.7,1.8c0.5,0.5,1.1,0.8,1.7,0.8v0.2 c-0.5,0-0.8,0-1.1,0c-0.3,0-0.6,0-0.8,0s-0.5,0-0.7,0c-0.3,0-0.6,0-0.9,0c-0.3,0-0.6,0-0.8,0c-0.2,0-0.4,0-0.6,0 c-0.2,0-0.4,0-0.6,0c-0.2,0-0.4,0-0.7,0c-0.8-1-1.6-2-2.3-2.9c-0.7-0.9-1.4-1.8-2-2.7c-0.7-0.9-1.3-1.8-2-2.6 c-0.7-0.9-1.4-1.8-2.2-2.8c-0.4-0.5-0.8-0.9-1.1-1.2c-0.3-0.3-0.8-0.4-1.4-0.4h-0.4v9.9c0,0.6,0.1,1,0.3,1.3 c0.2,0.3,0.4,0.6,0.7,0.8c0.3,0.2,0.6,0.3,1,0.4c0.4,0.1,0.7,0.1,1.1,0.1v0.2c-0.8,0-1.4,0-1.9,0c-0.5,0-0.9,0-1.2,0 c-0.3,0-0.6,0-0.9,0s-0.6,0-1.1,0c-0.4,0-0.8,0-1.1,0c-0.3,0-0.6,0-0.9,0c-0.3,0-0.7,0-1.1,0c-0.4,0-1,0-1.7,0v-0.2 c0.4,0,0.7,0,1.1-0.1c0.4-0.1,0.7-0.2,1-0.4c0.3-0.2,0.5-0.4,0.7-0.8c0.2-0.3,0.3-0.8,0.3-1.3V3.6c0-0.6-0.1-1-0.3-1.3 c-0.2-0.3-0.4-0.6-0.7-0.8c-0.3-0.2-0.6-0.3-1-0.4c-0.4-0.1-0.7-0.1-1.1-0.1V0.9z"></path> <path class="st0" d="M240.1,0.9c0.7,0,1.3,0,1.7,0c0.4,0,0.8,0,1.2,0c0.3,0,0.6,0,1,0c0.3,0,0.7,0,1.1,0c0.4,0,0.8,0,1.1,0 c0.3,0,0.6,0,1,0c0.3,0,0.7,0,1.2,0c0.4,0,1,0,1.7,0v0.2c-0.4,0-0.8,0-1.1,0.1c-0.4,0.1-0.7,0.2-1,0.4c-0.3,0.2-0.5,0.4-0.7,0.8 C247,2.6,247,3.1,247,3.6v21.1c0,0.6,0.1,1,0.3,1.3c0.2,0.3,0.4,0.6,0.7,0.8c0.3,0.2,0.6,0.3,1,0.4s0.7,0.1,1.1,0.1v0.2 c-0.7,0-1.3,0-1.7,0c-0.4,0-0.8,0-1.2,0c-0.3,0-0.7,0-1,0c-0.3,0-0.7,0-1.1,0c-0.5,0-0.8,0-1.1,0c-0.3,0-0.6,0-1,0 c-0.3,0-0.7,0-1.2,0c-0.4,0-1,0-1.7,0v-0.2c0.4,0,0.8,0,1.1-0.1c0.4-0.1,0.7-0.2,1-0.4c0.3-0.2,0.5-0.4,0.7-0.8 c0.2-0.3,0.3-0.8,0.3-1.3V3.6c0-0.6-0.1-1-0.3-1.3c-0.2-0.3-0.4-0.6-0.7-0.8c-0.3-0.2-0.6-0.3-1-0.4c-0.4-0.1-0.7-0.1-1.1-0.1V0.9 z"></path> <path class="st1" d="M0.8,20.7c0.6,4.6,3.8,6.5,7.7,6.5c4.5,0,7.4-2.3,7.4-6.4c0-3.6-1.8-5.6-7.4-7.2C3.3,12,1,10.3,1,6.5 C1,2.3,4.1,0,8.5,0c5,0,7.4,3,7.8,6.6h-0.8c-0.5-4-3.4-5.9-7-5.9c-4,0-6.6,2.2-6.6,5.7c0,3.4,2.1,4.9,7,6.4 c6.4,1.8,7.9,4.3,7.9,7.9c0,4.4-3,7.1-8.3,7.1c-5.3,0-7.9-3-8.5-7.2H0.8z"></path> <path class="st1" d="M30.2,0.4H31v14.8c2.6-2.5,10.5-10.1,15.3-14.8h1.1L35.5,11.9l12.6,15.6h-1L34.9,12.4L31,16.2v11.3h-0.8V0.4z "></path> <path class="st1" d="M65.3,27.5V16.3c0-0.2-0.1-0.4-0.2-0.5L56.3,0.4h0.9c2.8,4.8,7.5,13,8.5,14.9c2.4-4,5.8-9.8,8.8-14.9h0.9 l-9,15.4C66.1,16,66,16.2,66,16.3v11.1H65.3z"></path> <path class="st0" d="M47,46.2c-0.6-1.9-1-3-1.2-3.5h0c-0.2,0.8-0.6,1.9-1.1,3.5H47z M44.6,46.8L43.8,49h-0.7 c0.6-1.9,1.6-4.8,2.3-6.9h0.8l2.4,6.9h-0.7l-0.8-2.3H44.6z"></path> <path class="st0" d="M55.3,48.5h1.5c1,0,1.7-0.5,1.7-1.5c0-0.9-0.6-1.4-1.7-1.4h-1.4V48.5z M56.8,45c1.1,0,1.5-0.5,1.5-1.2 c0-0.7-0.4-1.2-1.4-1.2h-1.6V45H56.8z M54.6,42.2h2.3c1.1,0,1.9,0.6,1.9,1.7c0,0.9-0.6,1.3-1,1.5c0.5,0.1,1.3,0.6,1.3,1.7 c0,1.3-0.9,2-2.3,2h-2.2V42.2z"></path> <path class="st0" d="M65.8,45.5c0,1.7,0.7,3,2.2,3c1.5,0,2.2-1.3,2.2-3c0-1.7-0.7-2.9-2.1-2.9C66.4,42.6,65.8,43.9,65.8,45.5 M70.7,45.5c0,2-0.9,3.6-2.9,3.6c-1.8,0-2.8-1.5-2.8-3.6c0-1.8,0.9-3.5,2.9-3.5C69.8,42.1,70.7,43.5,70.7,45.5"></path> <path class="st0" d="M78.6,49l-2.3-6.9H77l1.1,3.5c0.3,1,0.7,2.1,0.9,2.7h0c0.1-0.5,0.6-1.7,0.9-2.7l1.2-3.5h0.7L79.4,49H78.6z"></path> </g> <polygon class="st0" points="87.7,42.2 87.7,49 91.7,49 91.8,48.5 88.4,48.5 88.4,45.7 91.5,45.7 91.5,45.1 88.4,45.1 88.4,42.7 91.7,42.7 91.7,42.2 "></polygon> <g> <path class="st0" d="M108.6,46.2c-0.6-1.9-1-3-1.2-3.5h0c-0.2,0.8-0.6,1.9-1.1,3.5H108.6z M106.1,46.8l-0.7,2.3h-0.7 c0.6-1.9,1.6-4.8,2.3-6.9h0.8l2.4,6.9h-0.7l-0.8-2.3H106.1z"></path> <path class="st0" d="M116.2,49v-6.9h0.9c3,5.1,3.4,5.8,3.5,6.1h0c-0.1-1-0.1-2.1-0.1-3.2v-2.9h0.6V49h-0.8 c-3.2-5.5-3.4-5.9-3.6-6.2h0c0,0.9,0,2,0,3.3v3H116.2z"></path> <path class="st0" d="M128.6,48.5h1.4c1.7,0,2.5-1.1,2.5-3c0-1.8-1.1-2.7-2.5-2.7h-1.4V48.5z M128,42.2h2.2c1.6,0,3,1,3,3.3 c0,2.3-1.2,3.6-3.2,3.6H128V42.2z"></path> <path class="st0" d="M147.5,48.5h1.5c1,0,1.7-0.5,1.7-1.5c0-0.9-0.6-1.4-1.7-1.4h-1.4V48.5z M149,45c1.1,0,1.5-0.5,1.5-1.2 c0-0.7-0.4-1.2-1.4-1.2h-1.6V45H149z M146.9,42.2h2.3c1.1,0,1.9,0.6,1.9,1.7c0,0.9-0.6,1.3-1,1.5c0.5,0.1,1.3,0.6,1.3,1.7 c0,1.3-0.9,2-2.3,2h-2.2V42.2z"></path> </g> <polygon class="st0" points="157.7,42.2 157.7,49 161.7,49 161.7,48.5 158.3,48.5 158.3,45.7 161.4,45.7 161.4,45.1 158.3,45.1 158.3,42.7 161.6,42.7 161.6,42.2 "></polygon> <g> <path class="st0" d="M169.6,49v-2.8c0-0.1,0-0.1-0.1-0.2l-2.3-3.9h0.7c0.6,1.1,1.6,2.9,1.9,3.4c0.6-1,1.3-2.3,1.9-3.4h0.7l-2.3,4 c0,0,0,0.1,0,0.1V49H169.6z"></path> <path class="st0" d="M178.5,45.5c0,1.7,0.7,3,2.2,3c1.5,0,2.2-1.3,2.2-3c0-1.7-0.7-2.9-2.1-2.9C179.2,42.6,178.5,43.9,178.5,45.5 M183.5,45.5c0,2-0.9,3.6-2.9,3.6c-1.8,0-2.8-1.5-2.8-3.6c0-1.8,0.9-3.5,2.9-3.5C182.5,42.1,183.5,43.5,183.5,45.5"></path> <path class="st0" d="M189.9,49v-6.9h0.9c3,5.1,3.4,5.8,3.5,6.1h0c-0.1-1-0.1-2.1-0.1-3.2v-2.9h0.6V49H194 c-3.2-5.5-3.4-5.9-3.6-6.2h0c0,0.9,0,2,0,3.3v3H189.9z"></path> <path class="st0" d="M202.3,48.5h1.4c1.7,0,2.5-1.1,2.5-3c0-1.8-1.1-2.7-2.5-2.7h-1.4V48.5z M201.6,42.2h2.2c1.6,0,3,1,3,3.3 c0,2.3-1.2,3.6-3.2,3.6h-2.1V42.2z"></path> </g> </g> </svg> 