<?xml version="1.0" encoding="UTF-8"?> <svg xmlns="http://www.w3.org/2000/svg" id="Layer_1" data-name="Layer 1" viewBox="0 0 141 76"><defs><style>.cls-1{fill:#b4a269;}</style></defs><path class="cls-1" d="M76,40.45a2.8,2.8,0,0,1,2.33,1.34l14.1,21.43a18.22,18.22,0,0,0,3.34,3.62l7.67,6,3.42,3H34.18l3.35-3,.07-.06,5.76-5.93a17.25,17.25,0,0,0,3.3-3.63L60,42.29a2.94,2.94,0,0,1,2.46-1.41,3,3,0,0,1,2.06.86s2.32,2.18,4.76,2.18c2.27,0,4.56-2.46,4.59-2.49a2.87,2.87,0,0,1,2.11-1m.15,17a.8.8,0,0,1-.72-.47l-5-11.24-.16-.36-.39.05-.19,0a2.58,2.58,0,0,1-.38,0c-3.09,0-5.75-2.51-5.86-2.61a1.4,1.4,0,0,0-1-.42,1.38,1.38,0,0,0-1.14.67L48,64.05a18.66,18.66,0,0,1-3.66,4L39.48,73.3l-1.22,1h62.91l1.54,0-1.22-.9-6.72-5.23a19.43,19.43,0,0,1-3.69-4L77,42.65A1.24,1.24,0,0,0,76,42a1.28,1.28,0,0,0-1,.46,11.43,11.43,0,0,1-2.82,2.18l-.44.23.2.45,4.89,11a.78.78,0,0,1,0,.6.77.77,0,0,1-.41.44.88.88,0,0,1-.32.07M76,39.92"></path><path class="cls-1" d="M70.86,32.24a.78.78,0,0,1,.78.78v5.25a.78.78,0,0,1-.78.79.79.79,0,0,1-.79-.79V33a.79.79,0,0,1,.79-.78"></path><path class="cls-1" d="M61.11,12.54a.78.78,0,1,1,0,1.56,5.62,5.62,0,1,0,0,11.24c2.37,0,4-.69,4.85-2a.8.8,0,0,1,.67-.37.81.81,0,0,1,.41.11.73.73,0,0,1,.35.49.77.77,0,0,1-.09.59,4.47,4.47,0,0,1-.93,1.1l0,1.2v9.19a.79.79,0,0,1-1.57,0V26.27l-.69.21a9.88,9.88,0,0,1-3,.43,7.19,7.19,0,1,1,0-14.37"></path><path class="cls-1" d="M73.11,6.39a7.12,7.12,0,0,1,1.23.1c6.23,1.07,7.09,5.64,7.09,10.42a10.64,10.64,0,0,1-.23,2.19l0,.11,0,.06-.13.27.17.25a6.85,6.85,0,0,1,1.19,3.87A6.93,6.93,0,0,1,71,29a.82.82,0,0,1-.28-.53.8.8,0,0,1,.17-.58.78.78,0,0,1,.61-.28.77.77,0,0,1,.5.18,5.36,5.36,0,1,0,3.41-9.5,5.26,5.26,0,0,0-1.72.28,1,1,0,0,1-.25,0,.79.79,0,0,1-.74-.54.78.78,0,0,1,.49-1,6.93,6.93,0,0,1,5.84.67l.76.47,0-.89V17.2a2.71,2.71,0,0,0,0-.29c0-5.75-1.56-8.15-5.78-8.87a5.63,5.63,0,0,0-1-.09,6.69,6.69,0,0,0-4.61,1.94c-.76.77-1,1.42-.9,1.75v.08l0,.07a.76.76,0,0,1-.33,1,.74.74,0,0,1-.36.09.8.8,0,0,1-.71-.42,2.86,2.86,0,0,1,.53-3,8.12,8.12,0,0,1,6.36-3.11"></path></svg> 