<?xml version="1.0" encoding="UTF-8"?> <svg xmlns="http://www.w3.org/2000/svg" id="Layer_1" data-name="Layer 1" viewBox="0 0 141 76"><defs><style>.cls-1{fill:#b4a269;stroke:#b4a269;stroke-miterlimit:10;stroke-width:0.19px;}</style></defs><path class="cls-1" d="M90.87,43c-.06-.14-.12-.31-.2-.49-1.3-3.37-5.28-13.63-17.4-14.62h0c-.51,0-1-.05-1.51-.05-3.62,0-6.42.92-8.34,2.73a11.2,11.2,0,0,0-2.75,4.62,7.63,7.63,0,0,1-.42,1,2.15,2.15,0,0,1-1.77,1.29,2.32,2.32,0,0,1-2-2.54c0-3.24,2.08-6.51,4.12-9.68,1.82-2.84,3.54-5.52,3.4-7.87-.27-4.7-3.61-7.16-6.75-7.16a5.41,5.41,0,0,0-.91.07,4.49,4.49,0,0,0-3.64,3.54A7.55,7.55,0,0,0,50,18c-.38,2.12.63,3.39,1.7,4.72l.62.79a.58.58,0,0,0,.66.21.6.6,0,0,0,.43-.55A8.4,8.4,0,0,1,55.65,18a6.25,6.25,0,0,0,3.56-1.74c.29.15.74.55.86,1.66.15,1.43-1.49,3.71-3.22,6.12-2.15,3-4.58,6.41-5.16,10a8.74,8.74,0,0,0,8,10c1,.08,2,.12,3,.12,1.59,0,3-.11,4.42-.22l.95-.07h.2c1.28,0,2.39.91,3.37,1.71a5.4,5.4,0,0,0,1.89,1.18l0,8.27-8.19-.94a.61.61,0,0,0-.45.13.6.6,0,0,0-.22.43l-.28,3.6a.62.62,0,0,0,.56.65h0a.6.6,0,0,0,.6-.56l.23-3,7.7.88v1.67a2,2,0,0,0-1,1.49,1.9,1.9,0,0,0,1.09,1.57l-.06,13.52-2.7.07a.61.61,0,0,0,0,1.21h0l3.28-.08a.62.62,0,0,0,.6-.6l.07-14.48A.59.59,0,0,0,74.4,60c-.33-.15-.72-.46-.74-.59s.46-.55.66-.63a.6.6,0,0,0,.38-.56v-1.9l8.75,1a.61.61,0,0,0,.63-.35.63.63,0,0,0-.15-.7,2,2,0,0,1-.52-.68,1.1,1.1,0,0,1,.69-.23.6.6,0,0,0,.56-.4.61.61,0,0,0-.18-.66l-9.3-8.05a5.53,5.53,0,0,0,.93-1.1,6.3,6.3,0,0,1,1.44-1.6,7.72,7.72,0,0,1,4.36-1.1c.43,0,.89,0,1.34.06A18.66,18.66,0,0,1,88,43.91a7.32,7.32,0,0,0,2.17.66.86.86,0,0,0,.76-.38A1.23,1.23,0,0,0,90.87,43Zm-8.6,12.22a1.16,1.16,0,0,0,0,.76l-7.56-.88,0-7.62,8.12,7A1.42,1.42,0,0,0,82.27,55.25Zm6.17-12.47a19.67,19.67,0,0,0-5.07-1.43,14.35,14.35,0,0,0-1.45-.07,8.55,8.55,0,0,0-5.07,1.33,7.49,7.49,0,0,0-1.72,1.88c-.49.69-.76,1-1.2,1.08h0c-.32,0-1-.52-1.51-1a6.73,6.73,0,0,0-4.14-2H68l-1,.07c-1.43.11-2.78.22-4.33.22-.93,0-1.88,0-2.89-.12a7.53,7.53,0,0,1-6.93-8.62c.54-3.3,2.89-6.58,5-9.47,1.95-2.72,3.63-5.07,3.43-6.95-.28-2.65-2.13-2.82-2.21-2.83a.59.59,0,0,0-.5.21,5,5,0,0,1-3.22,1.64.59.59,0,0,0-.39.16A9.75,9.75,0,0,0,52.4,21.6c-.86-1.09-1.44-2-1.18-3.42a6.61,6.61,0,0,1,2.39-3.47.6.6,0,0,0,.24-.41,3.36,3.36,0,0,1,2.67-2.76,5.55,5.55,0,0,1,.72,0c2.58,0,5.31,2.07,5.55,6,.11,1.95-1.51,4.47-3.22,7.14-2,3.17-4.34,6.75-4.31,10.35a3.52,3.52,0,0,0,3.2,3.74,3.3,3.3,0,0,0,2.82-1.89,8.33,8.33,0,0,0,.51-1.22c.89-2.45,2.38-6.54,9.95-6.54.46,0,.94,0,1.43,0C84.54,30.06,88.31,39.78,89.54,43c0,.09.07.18.1.26C89.3,43.12,88.85,42.94,88.44,42.78Z"></path><path class="cls-1" d="M55.77,12.75l-.2.12a.59.59,0,0,0-.21.82.58.58,0,0,0,.52.3.54.54,0,0,0,.3-.08l.21-.12a.61.61,0,0,0-.62-1Z"></path><path class="cls-1" d="M81.31,34.2a17.79,17.79,0,0,0-9.82-3.37h0A9.25,9.25,0,0,0,66.66,32a4.69,4.69,0,0,0-2.29,3.82,3.87,3.87,0,0,0,1.13,2.94,7.8,7.8,0,0,0,5.66,2.13.61.61,0,0,0,0-1.21,6.59,6.59,0,0,1-4.78-1.75,2.68,2.68,0,0,1-.8-2c.22-3.44,4.18-3.81,5.89-3.82a16.55,16.55,0,0,1,9.1,3.12,15.58,15.58,0,0,1,3.15,2.94.59.59,0,0,0,.84.13.61.61,0,0,0,.14-.84A16,16,0,0,0,81.31,34.2Z"></path><path class="cls-1" d="M75.56,38.7a4.33,4.33,0,0,1-1-.64A2.9,2.9,0,0,0,73,37.23a.61.61,0,0,0,0,1.22,4,4,0,0,1,.83.56,3.24,3.24,0,0,0,1.74.91,1,1,0,0,0,.4-.08.61.61,0,0,0,.33-.79A.62.62,0,0,0,75.56,38.7Z"></path><path class="cls-1" d="M80,37.78a4.88,4.88,0,0,1-1.39-.92c-.61-.49-1-.82-1.43-.8a.6.6,0,0,0,0,1.2,7,7,0,0,1,.72.54A4.06,4.06,0,0,0,80,39a1.07,1.07,0,0,0,.43-.09.6.6,0,0,0,.33-.79A.61.61,0,0,0,80,37.78Z"></path></svg> 