<?xml version="1.0" encoding="UTF-8"?> <svg xmlns="http://www.w3.org/2000/svg" id="Layer_1" data-name="Layer 1" viewBox="0 0 141 76"><defs><style>.cls-1{fill:#b4a269;}</style></defs><path class="cls-1" d="M93.88,74.16a27.38,27.38,0,0,1-6.25-17.39V55.31A23.26,23.26,0,0,1,90.8,44.49a14.39,14.39,0,0,0,2.37.19A14.67,14.67,0,0,0,107.85,30,14.7,14.7,0,0,0,93.17,15.31a13.71,13.71,0,0,0-1.52.09,11.28,11.28,0,0,0-11-8.87,11.11,11.11,0,0,0-7.37,2.78,13.93,13.93,0,0,0-7.51-2.18A14.1,14.1,0,0,0,51.73,21.22a20.87,20.87,0,0,0,.27,3l-8.28,5.29v17H36.94V41H35.53v6.91H52V74.16H33.15v1.41h72.21V74.16ZM86.22,55.31v1.46a28.78,28.78,0,0,0,5.87,17.39H71.42a28.78,28.78,0,0,0,5.87-17.39V55.34a17.08,17.08,0,0,0-1.78-7.46H85.76V42.66a14.33,14.33,0,0,0,3.59,1.51A24.68,24.68,0,0,0,86.22,55.31ZM53.38,53h6.68v4.14H53.38Zm0,5.55h6.68v4.15H53.38Zm0,5.56h6.68v4.14H53.38Zm8.09-16.2H74a16.79,16.79,0,0,1,1.93,7.43v1.46a27.33,27.33,0,0,1-6.26,17.39H61.47Zm0-13.3h6.86v2.6H61.47Zm8.27-4h14.6v2.59H69.74Zm14.6,4v2.6H69.74v-2.6Zm-14.6,4h14.6v2.6H69.74Zm-.5-9.43L59.15,22.71H72.54l10.09,6.45Zm-7.77,9.43h6.86v2.6H61.47Zm8.27,4h14.6v3.87H69.74ZM53.14,21.22A12.67,12.67,0,0,1,73,10.78l.48.33.41-.4a9.78,9.78,0,0,1,16.5,5.58l.11.7.69-.1a13.59,13.59,0,0,1,2-.17A13.28,13.28,0,1,1,85.76,41V29.48L73,21.3H56.53L53.3,23.36A19.86,19.86,0,0,1,53.14,21.22Zm3.59,1.63,11.6,7.41v2.91H61.47V32.4H52v.77H45.13V30.26Zm3.33,11v9.46H53.38V33.81ZM52,41.19H45.13v-2.6H52Zm0-4H45.13v-2.6H52ZM45.13,42.6H52v2.08h9.5V42.6h6.86v3.87H45.13Zm14.93,5.28v3.68H53.38V47.88ZM53.38,69.63h6.68v4.53H53.38Z"></path><path class="cls-1" d="M82,60.19A3.86,3.86,0,1,0,85.56,64,3.74,3.74,0,0,0,82,60.19Zm0,6.3A2.46,2.46,0,1,1,84.15,64,2.33,2.33,0,0,1,82,66.49Z"></path></svg> 