<?xml version="1.0" encoding="utf-8"?>
<!-- Generator: Adobe Illustrator 24.3.0, SVG Export Plug-In . SVG Version: 6.00 Build 0)  -->
<!DOCTYPE svg PUBLIC "-//W3C//DTD SVG 1.1//EN" "http://www.w3.org/Graphics/SVG/1.1/DTD/svg11.dtd" [
	<!ENTITY ns_extend "http://ns.adobe.com/Extensibility/1.0/">
	<!ENTITY ns_ai "http://ns.adobe.com/AdobeIllustrator/10.0/">
	<!ENTITY ns_graphs "http://ns.adobe.com/Graphs/1.0/">
	<!ENTITY ns_vars "http://ns.adobe.com/Variables/1.0/">
	<!ENTITY ns_imrep "http://ns.adobe.com/ImageReplacement/1.0/">
	<!ENTITY ns_sfw "http://ns.adobe.com/SaveForWeb/1.0/">
	<!ENTITY ns_custom "http://ns.adobe.com/GenericCustomNamespace/1.0/">
	<!ENTITY ns_adobe_xpath "http://ns.adobe.com/XPath/1.0/">
]>
<svg version="1.1" id="Layer_1" xmlns:x="&ns_extend;" xmlns:i="&ns_ai;" xmlns:graph="&ns_graphs;"
	 xmlns="http://www.w3.org/2000/svg" xmlns:xlink="http://www.w3.org/1999/xlink" x="0px" y="0px" viewBox="0 0 141 76"
	 style="enable-background:new 0 0 141 76;" xml:space="preserve">
<style type="text/css">
	.st0{fill:#B4A269;}
</style>
<metadata>
	<sfw  xmlns="&ns_sfw;">
		<slices></slices>
		<sliceSourceBounds  bottomLeftOrigin="true" height="42.7" width="81.4" x="20.1" y="-64.8"></sliceSourceBounds>
	</sfw>
</metadata>
<g>
	<g>
		<g>
			<path class="st0" d="M104.5,44.2c-0.4,0-0.7-0.3-0.7-0.7c0-5.3-4.3-9.6-9.6-9.6c-0.4,0-0.7-0.3-0.7-0.7c0-0.4,0.3-0.7,0.7-0.7
				c6.1,0,11,4.9,11,11C105.2,43.9,104.9,44.2,104.5,44.2z"/>
		</g>
	</g>
	<g>
		<path class="st0" d="M94.2,60.8c-6.4,0-12.3-3.5-15.3-9.2c-2-2.4-5-3.8-8.2-3.8c-3.2,0-6.2,1.4-8.2,3.9c-3,5.7-8.9,9.2-15.3,9.2
			c-9.5,0-17.3-7.7-17.3-17.3c0-5,2.2-9.8,6-13.1c0,0,0.1-0.1,0.1-0.1l11.5-9.6c0,0,0,0,0,0c2-1.7,4.5-2.6,7.1-2.6
			c5.2,0,9.6,3.6,10.7,8.6c1.6-1,3.4-1.5,5.3-1.5c1.9,0,3.7,0.5,5.3,1.5c1.1-5,5.5-8.6,10.7-8.6c2.6,0,5.1,0.9,7.1,2.6c0,0,0,0,0,0
			l11.5,9.6c0,0,0.1,0.1,0.1,0.1c3.8,3.3,6,8,6,13.1C111.5,53,103.7,60.8,94.2,60.8z M70.8,46.4c3.6,0,7,1.6,9.3,4.4
			c0,0,0.1,0.1,0.1,0.1c2.8,5.3,8.2,8.6,14.1,8.6c8.8,0,15.9-7.1,15.9-15.9c0-4.7-2-9.1-5.6-12.1c0,0-0.1,0-0.1-0.1l-11.4-9.5
			c0,0,0,0-0.1,0c-1.7-1.5-4-2.3-6.3-2.3c-4.9,0-9,3.7-9.6,8.5c0,0.2-0.2,0.5-0.4,0.5c-0.2,0.1-0.5,0.1-0.7-0.1
			c-1.5-1.2-3.4-1.9-5.3-1.9c-1.9,0-3.8,0.7-5.3,1.9c-0.2,0.2-0.5,0.2-0.7,0.1c-0.2-0.1-0.4-0.3-0.4-0.5c-0.5-4.9-4.7-8.5-9.6-8.5
			c-2.3,0-4.5,0.8-6.3,2.3c0,0,0,0-0.1,0l-11.4,9.5c0,0,0,0-0.1,0.1c-3.6,3-5.6,7.5-5.6,12.1c0,8.8,7.1,15.9,15.9,15.9
			c5.9,0,11.3-3.3,14.1-8.5c0,0,0-0.1,0.1-0.1C63.8,48,67.2,46.4,70.8,46.4z M94.2,57.8c-7.9,0-14.3-6.4-14.3-14.3
			c0-7.9,6.4-14.3,14.3-14.3c7.9,0,14.3,6.4,14.3,14.3C108.5,51.4,102.1,57.8,94.2,57.8z M94.2,30.6c-7.1,0-13,5.8-13,12.9
			c0,7.1,5.8,13,13,13c7.1,0,12.9-5.8,12.9-13C107.2,36.4,101.4,30.6,94.2,30.6z M47.3,57.8c-7.9,0-14.3-6.4-14.3-14.3
			c0-7.9,6.4-14.3,14.3-14.3c7.9,0,14.3,6.4,14.3,14.3C61.6,51.4,55.2,57.8,47.3,57.8z M47.3,30.6c-7.1,0-13,5.8-13,12.9
			c0,7.1,5.8,13,13,13c7.1,0,12.9-5.8,12.9-13C60.3,36.4,54.5,30.6,47.3,30.6z M70.8,43.3c-3.1,0-5.6-2.5-5.6-5.6
			c0-3.1,2.5-5.6,5.6-5.6c3.1,0,5.6,2.5,5.6,5.6C76.4,40.8,73.9,43.3,70.8,43.3z M70.8,33.5c-2.3,0-4.2,1.9-4.2,4.2
			c0,2.3,1.9,4.2,4.2,4.2c2.3,0,4.2-1.9,4.2-4.2C75,35.4,73.1,33.5,70.8,33.5z"/>
	</g>
	<g>
		<g>
			<path class="st0" d="M57.6,44.2c-0.4,0-0.7-0.3-0.7-0.7c0-5.3-4.3-9.6-9.6-9.6c-0.4,0-0.7-0.3-0.7-0.7c0-0.4,0.3-0.7,0.7-0.7
				c6.1,0,11,4.9,11,11C58.3,43.9,58,44.2,57.6,44.2z"/>
		</g>
	</g>
</g>
</svg>
