<?xml version="1.0" encoding="utf-8"?>
<!-- Generator: Adobe Illustrator 24.3.0, SVG Export Plug-In . SVG Version: 6.00 Build 0)  -->
<!DOCTYPE svg PUBLIC "-//W3C//DTD SVG 1.1//EN" "http://www.w3.org/Graphics/SVG/1.1/DTD/svg11.dtd" [
	<!ENTITY ns_extend "http://ns.adobe.com/Extensibility/1.0/">
	<!ENTITY ns_ai "http://ns.adobe.com/AdobeIllustrator/10.0/">
	<!ENTITY ns_graphs "http://ns.adobe.com/Graphs/1.0/">
	<!ENTITY ns_vars "http://ns.adobe.com/Variables/1.0/">
	<!ENTITY ns_imrep "http://ns.adobe.com/ImageReplacement/1.0/">
	<!ENTITY ns_sfw "http://ns.adobe.com/SaveForWeb/1.0/">
	<!ENTITY ns_custom "http://ns.adobe.com/GenericCustomNamespace/1.0/">
	<!ENTITY ns_adobe_xpath "http://ns.adobe.com/XPath/1.0/">
]>
<svg version="1.1" id="Layer_1" xmlns:x="&ns_extend;" xmlns:i="&ns_ai;" xmlns:graph="&ns_graphs;"
	 xmlns="http://www.w3.org/2000/svg" xmlns:xlink="http://www.w3.org/1999/xlink" x="0px" y="0px" viewBox="0 0 141 76"
	 style="enable-background:new 0 0 141 76;" xml:space="preserve">
<style type="text/css">
	.st0{fill:#B4A269;}
</style>
<metadata>
	<sfw  xmlns="&ns_sfw;">
		<slices></slices>
		<sliceSourceBounds  bottomLeftOrigin="true" height="71.2" width="74.8" x="22.4" y="-78"></sliceSourceBounds>
	</sfw>
</metadata>
<g>
	<path class="st0" d="M73.9,70.5c0-0.1-0.1-0.2-0.2-0.3l-7.3-8.3l0.3-0.3c2.3-1.8,3.8-4.6,4.5-6c0.2-0.4,0-0.9-0.4-1.1
		c-0.2-0.1-0.4-0.1-0.6,0c-0.2,0.1-0.4,0.2-0.4,0.4c-0.6,1.3-2.3,4.6-5,6.1c-0.2,0.1-0.3,0.3-0.4,0.6c0,0.2,0,0.5,0.2,0.7l7.8,9
		l0.3,1.3h-3.4l0.3-1.6c0.1-0.3,0-0.5-0.2-0.7l-7.8-7.7c-0.2-0.2-0.4-0.2-0.6-0.2c-0.2,0-0.4,0.1-0.6,0.2c-0.3,0.3-0.3,0.8,0,1.1
		L68,71l-0.4,2.1c0,0.2,0,0.5,0.2,0.7c0.2,0.2,0.4,0.3,0.6,0.3h5.3c0.2,0,0.5-0.1,0.6-0.3c0.2-0.2,0.2-0.4,0.1-0.7L73.9,70.5z"/>
	<path class="st0" d="M52.7,45.1c0,0.4,0,0.9,0,1.3c0.2,3,1.5,5.4,1.5,5.4c0.1,0.2,0.1,0.5,0,0.7l-3.9,8l4.4,9.9
		c0.1,0.1,0.1,0.2,0.1,0.4l-0.1,1.7h3.2L57.2,71c0,0,0-0.1,0-0.1l-2.9-9.7c-0.1-0.2,0-0.4,0.1-0.6c0.1-0.2,0.3-0.3,0.5-0.4
		c4.4-0.9,6.4-6.2,6.4-6.2c0.1-0.2,0.3-0.4,0.5-0.5c0.6-0.2,5.8-1.5,6.7-1.7c0.2,0,0.4,0,0.6,0.1c0.2,0.1,0.3,0.3,0.3,0.5
		s0,0.4-0.1,0.6c-0.1,0.2-0.3,0.3-0.5,0.3c-0.6,0.1-3.6,0.9-6.1,1.5l-0.2,0l-0.1,0.2c-0.6,1.5-2.5,5-6.1,6.3L56,61.6l2.6,8.8
		l1.1,2.5c0.1,0.2,0.1,0.5-0.1,0.8C59.6,73.9,59.3,74,59,74h-5.2c-0.2,0-0.4-0.1-0.6-0.3S53,73.4,53,73.2l0.2-2.3l-4.4-10
		c-0.1-0.2-0.1-0.5,0-0.7l3.9-7.9L52.6,52c-0.5-1-1.2-3-1.4-5.4c0-0.5,0-0.9,0-1.4c0.4-5,3.3-7.4,3.3-7.4c0.6-0.6,1.4-1.2,2.2-1.7
		c1.1-0.7,2.4-1.2,3.7-1.7c0.1,0.3,0.2,0.6,0.3,0.9l0,0.1c0.1,0.2,0.1,0.3,0.2,0.5c-1.3,0.4-2.4,0.9-3.5,1.5c-0.8,0.5-1.5,1-2.1,1.6
		C55.4,39,52.9,42,52.7,45.1z"/>
	<path class="st0" d="M100.8,57.6c-0.6,0.6-1.5,1.2-2,1.6l-0.3,0.2l-0.2-0.3c-0.3-0.3-0.7-0.9-1.2-1.5l-0.3-0.3l1.9-1.2
		c0.3-0.2,0.5-0.6,0.3-1l-2.8-6.6c-0.1-0.3-0.4-0.4-0.6-0.5l-7.1-0.8c-0.3,0-0.5,0.1-0.7,0.3c-0.5,0.6-1,1.1-1.6,1.5
		c-0.3,0.2-0.4,0.6-0.2,0.9l4.6,11.9l1.6,9c0,0.1,0.1,0.2,0.1,0.3l0.8,1.3h-2.9v-1.7c0-0.1,0-0.2,0-0.2l-2.7-8.3
		c0-0.1,0-0.1-0.1-0.2L80,50.4c-0.1-0.2-0.3-0.3-0.5-0.4c-0.1,0-0.1,0-0.2,0c-0.1,0-0.3,0-0.4,0.1c-0.4,0.2-0.5,0.7-0.2,1.1
		l7.3,11.5l2.7,8.2v2.3c0,0.4,0.4,0.8,0.8,0.8h5.1c0.3,0,0.6-0.2,0.7-0.4c0.1-0.3,0.1-0.6,0-0.8l-1.6-2.5L92,61.5c0,0,0-0.1,0-0.1
		l-4.4-11.5l0.2-0.2c0.2-0.2,0.5-0.5,0.7-0.7l0.1-0.1l6.3,0.7l2.4,5.6l-2,1.3c-0.2,0.1-0.3,0.3-0.3,0.5c0,0.2,0,0.4,0.1,0.6
		c0,0,0.6,0.9,1.2,1.7c1.1,1.4,1.8,2,2.5,1.8c0.2-0.1,0.7-0.3,2.2-1.6c1.8-1.5,1.9-1.9,2-2.1c0.1-0.2,0.1-0.5,0-0.7c0,0,0,0,0,0
		c0-0.1-0.1-0.1-0.1-0.2c0,0,0,0,0-0.1c-0.3-1.6-1.4-7.4-2.1-11c-0.1-0.3-0.3-0.5-0.5-0.6L92,42v-0.3c0-2.7,1.9-5.2,3.1-6.5l0,0
		c0,0,0.3-0.3,0.6,0l0,0c0.6,0.8,1.5,2.3,1.6,3.3c0.1,0.8,0.5,1.4,1.3,1.7c1.3,0.6,3.5,0.4,4.5-0.3c1.5-1,1.3-3.7,0.9-6.5l0-0.2
		c-0.1-0.5,0.1-0.8,0.5-1.5c0.3-0.5,0.6-1,0.9-1.8c0.7-1.8,0-4.3-0.3-5.3l-0.1-0.2l2.1-2.8c0.1-0.2,0.2-0.4,0.2-0.6
		c0-0.2-0.2-0.4-0.3-0.5c-4-2.8-8.3-3.5-12.9-2.1c-4.3,1.3-7.8,4.1-10,6.3c-0.2,0.1-0.2,0.3-0.2,0.6c0,0.2,0.1,0.4,0.2,0.6
		c0.3,0.3,0.8,0.3,1.1,0c3.1-3.1,11.3-9.7,19.9-4.7l0.4,0.2l-1.9,2.5c-0.2,0.2-0.2,0.5-0.1,0.8c0.3,0.9,1.1,3.4,0.5,4.8
		c-0.2,0.6-0.5,1.1-0.8,1.5c-0.5,0.8-0.9,1.5-0.8,2.6l0,0.2c0.4,2.7,0.4,4.4-0.1,4.9c-0.6,0.4-2.2,0.6-3,0.2
		c-0.2-0.1-0.3-0.2-0.4-0.5c-0.1-1.2-1.1-2.9-1.9-4.1c0,0-1.8-1.9-3.3,0.1c-1.5,1.7-3.7,4.9-3.2,8.3c0,0.3,0.2,0.5,0.5,0.6l8.4,2.8
		l0,0.2c1,5.6,1.7,9,2,10.3l0,0.2l-0.1,0.2c0,0-0.1,0.1-0.2,0.2"/>
	<path class="st0" d="M46.2,41.9c-1.3,0.8-1.9,2.4-1.5,4.3c0.6,2.8,0,5-1.7,6.4c-1.3,1.1-3.3,1.6-5.5,1.4l-1.3-0.1l1.2-0.6
		c1-0.6,1.8-1.3,2.3-2.1c1-1.6,0.9-3.7-0.2-6.1c-1.1-2.3,0-5.7,2.3-7.4c2.8-2.1,6.6-1.6,10.5,1.4c0.3-0.4,0.6-0.8,1-1.2
		c-2.2-1.7-4.4-2.7-6.5-2.9c-0.4,0-0.7-0.1-1-0.1c-1.8,0-3.4,0.5-4.9,1.6c-3,2.2-4.2,6.3-2.8,9.3c0.9,1.9,1,3.4,0.3,4.6
		c-1.3,2.2-5.1,2.6-5.2,2.6c-0.4,0-0.7,0.3-0.7,0.7c-0.1,0.4,0.1,0.7,0.5,0.9c1.8,0.8,3.8,1.2,5.5,1.2c2.2,0,4.2-0.6,5.7-1.9
		c2.2-1.8,3-4.7,2.2-8c-0.3-1.1,0-2.1,0.8-2.6c0.7-0.4,1.9-0.5,3.4,0.5c0.1-0.5,0.2-1.1,0.4-1.6C49.3,41.3,47.6,41,46.2,41.9z"/>
	<path class="st0" d="M52.5,44.2c0.3-0.3,0.2-0.8-0.1-1.1c-0.3-0.2-0.6-0.4-0.9-0.6c-0.2,0.6-0.3,1.2-0.3,1.7c0.1,0,0.1,0.1,0.2,0.1
		C51.7,44.6,52.2,44.6,52.5,44.2z"/>
	<path class="st0" d="M53.3,39.9c0.2,0.1,0.4,0.2,0.6,0.2c0.2,0,0.4-0.1,0.5-0.3c0.1-0.2,0.2-0.4,0.2-0.6c0-0.2-0.1-0.4-0.3-0.5
		c-0.2-0.1-0.3-0.3-0.5-0.4c-0.4,0.4-0.7,0.8-1,1.2C53,39.7,53.2,39.8,53.3,39.9z"/>
	<path class="st0" d="M52.6,39.3c0.3-0.4,0.6-0.8,1-1.2c-0.1-0.1-0.2-0.2-0.3-0.2c-0.4,0.4-0.7,0.8-1,1.2
		C52.4,39.1,52.5,39.2,52.6,39.3z"/>
	<path class="st0" d="M50.8,42.1c-0.2,0.5-0.3,1.1-0.4,1.6c0.1,0.1,0.2,0.2,0.4,0.2c0.1-0.5,0.2-1.1,0.4-1.7
		C51,42.2,50.9,42.1,50.8,42.1z"/>
	<path class="st0" d="M52.9,39.6c0.3-0.4,0.6-0.8,1-1.2c-0.1-0.1-0.2-0.2-0.3-0.3c-0.4,0.4-0.7,0.8-1,1.2
		C52.7,39.4,52.8,39.5,52.9,39.6z"/>
	<path class="st0" d="M51.2,42.3c-0.2,0.6-0.3,1.1-0.4,1.7c0.1,0.1,0.2,0.2,0.4,0.3c0.1-0.6,0.2-1.1,0.3-1.7
		C51.4,42.4,51.3,42.4,51.2,42.3z"/>
	<path class="st0" d="M100.3,29.1c0.2-0.1,0.3-0.3,0.3-0.5c0-0.2-0.1-0.4-0.2-0.6l-0.8-0.9c-0.2-0.2-0.4-0.3-0.6-0.3
		c-0.2,0-0.4,0.1-0.5,0.2c-0.2,0.1-0.3,0.3-0.3,0.5c0,0.2,0.1,0.4,0.2,0.6l0.8,0.9C99.5,29.3,100,29.4,100.3,29.1z"/>
	<path class="st0" d="M76.4,14.9c3.3,0,6.1-2.7,6.1-6.1s-2.7-6.1-6.1-6.1c-3.3,0-6.1,2.7-6.1,6.1S73.1,14.9,76.4,14.9z M76.4,4.4
		c2.5,0,4.5,2,4.5,4.5s-2,4.5-4.5,4.5s-4.5-2-4.5-4.5S74,4.4,76.4,4.4z"/>
	<path class="st0" d="M62.7,34.5c0.1,0.4,0.1,0.8-0.2,1.2c-0.1,0.2-0.3,0.4-0.5,0.5c0.9,1.4,2.3,2.5,3.9,2.9l7.6,2l-2.4,9.2
		c-0.4,1.4,0.4,2.9,1.8,3.5c0.8,0.3,1.6,0.2,2.4-0.1c0.7-0.4,1.3-1,1.5-1.8L81,38.1c0.3-1.4-0.4-2.8-1.7-3.4l-9.6-4.1
		c-0.2-0.1-0.4-0.1-0.6,0c-0.2,0.1-0.4,0.2-0.4,0.4s-0.1,0.4,0,0.6s0.2,0.4,0.4,0.4l9.6,4.1c0.6,0.2,0.9,0.9,0.8,1.5l-4.1,13.9
		c-0.1,0.4-0.4,0.7-0.7,0.8c-0.3,0.2-0.7,0.2-1.1,0c-0.6-0.2-1-0.9-0.8-1.6l2.6-9.9c0.1-0.4-0.1-0.9-0.6-1l-8.3-2.2
		c-1.6-0.4-2.9-1.6-3.5-3.1l0-0.1c-1.1-2.9-1.2-6.1-0.3-9.1l2-6.2c0.8-2.3,2.2-4.3,4.2-5.8l0.4-0.3c0.2-0.1,0.3-0.3,0.3-0.5
		s0-0.4-0.1-0.6s-0.3-0.3-0.5-0.3c0,0-0.1,0-0.1,0c-0.2,0-0.3,0.1-0.5,0.1L68,12.1c-2.3,1.6-3.9,3.9-4.8,6.6l-2,6.2
		c-0.9,2.8-1,5.7-0.2,8.5C61.8,33.3,62.5,33.8,62.7,34.5z M80.3,37.8L80.3,37.8L80.3,37.8z"/>
	<path class="st0" d="M62,34.8c-0.1-0.4-0.4-0.6-0.8-0.6c0,0,0,0,0,0c0.1,0.3,0.2,0.6,0.3,0.8l0,0.1c0.1,0.2,0.1,0.3,0.2,0.5
		c0.1-0.1,0.1-0.1,0.2-0.2C62,35.2,62,35,62,34.8z"/>
	<path class="st0" d="M62.4,34.7c0.1,0.5-0.1,1-0.5,1.3c0.1,0.1,0.1,0.2,0.2,0.3c0.2-0.1,0.4-0.3,0.5-0.5c0.2-0.4,0.3-0.8,0.2-1.2
		c-0.2-0.8-1-1.3-1.8-1.1c0,0.1,0.1,0.3,0.1,0.4C61.6,33.7,62.2,34.1,62.4,34.7z"/>
	<path class="st0" d="M62.4,34.7c-0.2-0.6-0.7-0.9-1.3-0.8c0,0.1,0.1,0.2,0.1,0.4c0,0,0,0,0,0c0.3,0,0.7,0.2,0.8,0.6
		c0.1,0.2,0,0.4-0.1,0.6c0,0.1-0.1,0.1-0.2,0.2c0.1,0.1,0.1,0.2,0.2,0.4C62.3,35.7,62.5,35.2,62.4,34.7z"/>
	<path class="st0" d="M84.2,31.9c-0.3,0.1-0.6,0.1-0.9,0l-10.1-4.1c-0.4-0.2-0.7-0.4-0.9-0.8l-2.2-4.3c-0.1-0.2-0.3-0.3-0.5-0.4
		c-0.1,0-0.2,0-0.2,0c-0.1,0-0.2,0-0.4,0.1c-0.2,0.1-0.3,0.3-0.4,0.5c-0.1,0.2-0.1,0.4,0,0.6l2.2,4.3c0.4,0.7,0.9,1.2,1.7,1.5
		l10.1,4.1c0.7,0.3,1.5,0.3,2.2,0c0.7-0.3,1.2-0.9,1.5-1.6c0.5-1.3-0.1-2.8-1.3-3.4l-7.2-3.8c-0.5-0.2-0.8-0.7-0.9-1.2l-1.1-6.2
		c-0.1-0.4-0.5-0.7-0.9-0.6c-0.2,0-0.4,0.2-0.5,0.3s-0.2,0.4-0.1,0.6l1.1,6.2c0.2,1,0.8,1.8,1.7,2.3l7.2,3.8
		c0.5,0.3,0.8,0.9,0.6,1.5C84.7,31.6,84.5,31.8,84.2,31.9z"/>
</g>
</svg>
