<?xml version="1.0" encoding="UTF-8"?> <svg xmlns="http://www.w3.org/2000/svg" id="Layer_1" data-name="Layer 1" viewBox="0 0 141 76"><defs><style>.cls-1{fill:#b4a269;stroke:#b4a269;stroke-miterlimit:10;stroke-width:0.2px;fill-rule:evenodd;}</style></defs><path class="cls-1" d="M111.92,37.88a5.08,5.08,0,0,0-.18-.55,17.73,17.73,0,0,0,1.47-1,9.79,9.79,0,0,0-2.57-3q-1.69-1.61-4.82-4a8.22,8.22,0,0,0-3.47-5.12,12.36,12.36,0,0,0-7.14-1.74h0c-8.85.37-12.4,5.69-16.13,11.31A40,40,0,0,1,73,41.49a38.21,38.21,0,0,1-5.78.71,46.73,46.73,0,0,1-7.95-.48h0c-10.57-1.33-12,3.37-13.48,8.09l-.13.44a27.85,27.85,0,0,1-4.51,8.25,21.74,21.74,0,0,1-5.56,4.84C32.25,62.87,30,64,27.79,67c5.05.95,7.46.22,8.4-2.47a19.2,19.2,0,0,0,5.07-2.92,23.92,23.92,0,0,0,5.12-5.79v0a50.62,50.62,0,0,1,2.74-4.42c.16-.23.3-.43.43-.6a15.74,15.74,0,0,1-1.72,4.84,23.18,23.18,0,0,1-4.68,6.18L43,62l0,.18a15.41,15.41,0,0,0,.1,6.64,20.55,20.55,0,0,0,2.73,6.67l.17.27h7.56L53,74.84l-.26-.42a21,21,0,0,1-3.87-9,9,9,0,0,1,4-2l.55-.18a5.41,5.41,0,0,1-.47.85A11.1,11.1,0,0,1,51.3,65.9l-.23.21.07.31a17.27,17.27,0,0,0,1.51,4.14,31.58,31.58,0,0,0,2.8,4.56l.17.23h.28l2.67,0,2.65,0H62.4l-.72-.92a26.74,26.74,0,0,1-2.19-3.28,28.2,28.2,0,0,1-1.63-3.41c.54-1.13,1-1.49,2.47-2.67l1.34-1.09h0A12.51,12.51,0,0,0,64,61.6a10.23,10.23,0,0,0,1.07-2,29.12,29.12,0,0,0,6.1,1A43,43,0,0,0,80.9,60a22.21,22.21,0,0,1,.21,2.93,19.86,19.86,0,0,1-.51,3.73v.06A9.35,9.35,0,0,0,81.35,71,12.18,12.18,0,0,0,84,75l.16.17H88.8l.3.32.17.17h.24l5.32-.07,1.23,0-.81-.92c-3.78-4.27-3-6.7-1.92-9.9a23.3,23.3,0,0,0,1.27-5.41l.12.24L95.43,61l.34-1.52A32,32,0,0,1,97.39,54a9.37,9.37,0,0,1,.81-1.54,14.71,14.71,0,0,0,.36,1.7,14.54,14.54,0,0,0,1.09,2.88l.54,1,.47-1c.78-1.7,1.65-3.23,2.46-4.66,1.82-3.21,3.37-6,3.23-8.88a14.7,14.7,0,0,0,4-1.17,3,3,0,0,0,2-2.36v-.11A11.25,11.25,0,0,0,111.92,37.88ZM63,61A11.42,11.42,0,0,1,61,63.21c-.56.47-1,.8-1.32,1.07-1.74,1.39-2.2,1.76-2.9,3.3l-.1.22.08.22a29.84,29.84,0,0,0,1.8,3.78,28.45,28.45,0,0,0,1.58,2.49l-1.5,0-2.39,0a30.89,30.89,0,0,1-2.54-4.17,16.9,16.9,0,0,1-1.35-3.57,11,11,0,0,0,1.52-1.74,6.75,6.75,0,0,0,.9-2,10.6,10.6,0,0,0,5.56-5.08,22.93,22.93,0,0,0,3.62,1.55A8.9,8.9,0,0,1,63,61ZM86.69,74.08h-2.1a11.21,11.21,0,0,1-2.19-3.46,8.42,8.42,0,0,1-.68-3.79,20.44,20.44,0,0,0,.52-3.92A23.43,23.43,0,0,0,82,59.76c1-.19,1.93-.39,2.93-.63a28.39,28.39,0,0,1,.25,8.15v.09a12.55,12.55,0,0,0,1.17,4.34,13.58,13.58,0,0,0,1.49,2.37Zm5.56-9.63c-1.09,3.31-1.94,5.88,1.38,10.08l-3.89,0a13.17,13.17,0,0,1-2.36-3.36,11.08,11.08,0,0,1-1.06-3.9,27.48,27.48,0,0,0-.42-9l-.14-.54-.54.13a47,47,0,0,1-14,1.56,24.53,24.53,0,0,1-10.84-3l-.51-.29-.27.52a10.25,10.25,0,0,1-7.1,5.69,9.55,9.55,0,0,0-4.65,2.54l-.18.2,0,.27a21.31,21.31,0,0,0,3.79,9.2H46.61a19.76,19.76,0,0,1-2.42-6,14.56,14.56,0,0,1-.14-6,24.57,24.57,0,0,0,4.79-6.37,15.29,15.29,0,0,0,2-6.68v-.65c-1.29.17-1.83.82-2.6,1.9a51.84,51.84,0,0,0-2.79,4.5,23.06,23.06,0,0,1-4.63,5.32c.42-.44.82-.9,1.21-1.38a28.61,28.61,0,0,0,4.7-8.58v0l.14-.45c1.32-4.27,2.62-8.52,12.27-7.3h0a48.09,48.09,0,0,0,8.13.5,37.63,37.63,0,0,0,6-.74,8.07,8.07,0,0,0,4.06.51,11,11,0,0,0,2.8-.75,10.57,10.57,0,0,0-.93,3,19.3,19.3,0,0,0,.27,6.51l.15.76.67-.37a23.53,23.53,0,0,0,3.24-2.15c.78-.61,1.58-1.3,2.4-2.05a17.84,17.84,0,0,0,.39,5.29,6.48,6.48,0,0,0,2.6,4l.6.39.24-.68c.56-1.55,1.13-2.94,1.69-4.16.21-.44.41-.85.61-1.24A14.35,14.35,0,0,0,92.44,54a24.17,24.17,0,0,0,1.09,3.1A19.14,19.14,0,0,1,92.25,64.45Zm9.89-12.62c-.65,1.14-1.33,2.35-2,3.64a13.76,13.76,0,0,1-.52-1.57,12.18,12.18,0,0,1-.45-2.69l0-1.05-.86.59a6.47,6.47,0,0,0-2,2.85A29.07,29.07,0,0,0,95,57.71a25.94,25.94,0,0,1-1.5-4,10.41,10.41,0,0,1-.38-4.12l.35-2.52L92.12,49.2a25.56,25.56,0,0,0-1.75,3.23c-.49,1-1,2.21-1.46,3.52a5.85,5.85,0,0,1-1.56-2.9,19.11,19.11,0,0,1-.25-6.38l.15-1.55-1.1,1.09a40.85,40.85,0,0,1-3.38,3,25.39,25.39,0,0,1-2.39,1.66,17,17,0,0,1-.12-5.34,8.22,8.22,0,0,1,1.84-4.19l2.12-2.43L81.4,40.47A12,12,0,0,1,77.13,42a7.11,7.11,0,0,1-2.81-.19A43.36,43.36,0,0,0,80,34.44c3.57-5.37,7-10.46,15.23-10.8a11.36,11.36,0,0,1,6.49,1.55,7.08,7.08,0,0,1,2.87,4l-1,0a6.22,6.22,0,0,0-3.64,1A3.93,3.93,0,0,0,98.38,33a5.36,5.36,0,0,0,0,.82v.28l.21.16C107.9,41.65,105.51,45.87,102.14,51.83Zm7.67-10.5a13.47,13.47,0,0,1-3.6,1.06c-.52-2.6-2.45-5.39-6.74-8.8a3,3,0,0,1,0-.43A2.86,2.86,0,0,1,100.62,31a5.15,5.15,0,0,1,3-.78,11.79,11.79,0,0,1,1.62.09,59.81,59.81,0,0,1,4.63,3.84,9.13,9.13,0,0,1,1.69,1.93A15.53,15.53,0,0,1,108.8,38a4.83,4.83,0,0,0,1.91-.18c0,.12.08.23.12.38a11.15,11.15,0,0,1,.31,1.75C111.07,40.44,110.63,40.91,109.81,41.33Z"></path><path class="cls-1" d="M99.32,28.41,99,27.88a3.59,3.59,0,0,0-3.42-1.8,3,3,0,0,0-1.6.58,2.1,2.1,0,0,0-.82,1.49c-.06.91.49,2,2.06,3.23l.54.41.3-.61a5.47,5.47,0,0,1,2.7-2.5Zm-3.91,1.66c-.84-.74-1.14-1.37-1.11-1.85a.93.93,0,0,1,.38-.66,1.87,1.87,0,0,1,1-.35,2.46,2.46,0,0,1,2,.76A6.58,6.58,0,0,0,95.41,30.07Z"></path><path class="cls-1" d="M105.79,32.6c-.82-.2-1.54-.11-1.62.19s.53.72,1.34.93,1.55.12,1.63-.19S106.61,32.8,105.79,32.6Z"></path></svg> 